<?xml version="1.0" encoding="UTF-8"?>
<svg id="Capa_1" data-name="Capa 1" xmlns="http://www.w3.org/2000/svg" viewBox="0 0 312.84 313.06">
  <defs>
    <style>
      .cls-1 {
        fill: #d21;
      }

      .cls-1, .cls-2 {
        stroke-width: 0px;
      }

      .cls-2 {
        fill: #d21;
      }
    </style>
  </defs>
  <path class="cls-1" d="M110.22,129.46c-1.27-.98-2.36-1.71-3.32-2.59-22.24-20.52-44.45-41.06-66.68-61.58C27.52,53.56,14.82,41.83,2.05,30.18c-2.14-1.95-3.1-3.25-.42-5.79,7.73-7.31,15.29-14.82,22.64-22.51,2.43-2.55,3.54-2.12,5.69.22,25.19,27.43,50.49,54.75,75.76,82.11,7.22,7.81,14.44,15.62,21.62,23.46,1.13,1.23,3.22,2.48.42,4.22-6.46,4.02-11.61,9.38-15.86,15.65-.43.64-1.02,1.18-1.68,1.92Z"/>
  <path class="cls-1" d="M312.84,285.37c-.9,1.05-1.6,1.97-2.41,2.78-7.42,7.4-15.01,14.65-22.23,22.24-2.59,2.72-3.93,2.24-6.18-.22-22.72-24.78-45.53-49.47-68.31-74.19-9.47-10.28-18.83-20.66-28.43-30.81-2.29-2.41-2.65-3.47.44-5.47,5.61-3.64,10.5-8.24,13.97-14.04,1.72-2.86,2.88-2.69,5.18-.56,30.13,27.96,60.35,55.83,90.55,83.72,4.89,4.52,9.82,9.01,14.69,13.54.95.88,1.76,1.92,2.73,3Z"/>
  <path class="cls-1" d="M311.54,26.98c.5,2.01-.99,2.84-2.04,3.8-30.85,28.41-61.73,56.8-92.59,85.2-3.8,3.49-7.62,6.97-11.27,10.61-2.42,2.42-4.02,3.29-6.33-.43-3.44-5.55-8.08-10.23-13.71-13.61-2.99-1.8-2.56-2.88-.47-5.12,16.9-18.15,33.68-36.41,50.49-54.63,10.61-11.5,21.22-23,31.83-34.5,5.15-5.58,10.36-11.11,15.45-16.75,1.63-1.8,2.63-2.27,4.66-.16,7.14,7.45,14.57,14.63,21.9,21.9,1.09,1.08,2.09,2.16,2.06,3.68Z"/>
  <path class="cls-1" d="M27.14,313.06c-.91-.8-1.67-1.4-2.35-2.07-7.56-7.51-15.03-15.09-22.68-22.5-2.53-2.45-2.29-4.02.25-6.36,35.15-32.32,70.22-64.73,105.25-97.18,2.1-1.94,3.14-2.21,4.82.46,3.3,5.24,7.52,9.75,12.66,13.29,3.71,2.55,3.3,5.13.52,8.14-30.63,33.09-61.22,66.2-91.82,99.32-1.47,1.59-2.86,3.24-4.34,4.82-.66.71-1.43,1.31-2.31,2.1Z"/>
  <path class="cls-2" d="M156.31,116.67c22.22.13,39.95,17.81,39.69,39.59-.26,22.29-18.11,39.93-40.28,39.8-21.7-.13-39.54-18.27-39.48-40.13.06-21.86,17.95-39.38,40.07-39.25Z"/>
</svg>