<?xml version="1.0" encoding="UTF-8"?>
<svg id="Capa_1" data-name="Capa 1" xmlns="http://www.w3.org/2000/svg" viewBox="0 0 511.8 511.81">
  <path d="M508.84,217.15c-4.04-21.8-9.24-43.25-18.58-63.49-7.9-19.56-18.92-37.3-31.7-53.98-3.71-4.84-7.6-9.56-11.69-14.08-14.8-16.35-31.28-30.68-49.77-42.86-12.35-8.13-25.38-14.63-38.73-20.83-25.78-11.97-52.92-18.17-81.02-20.88-.7-.07-1.28-.24-1.46-1.01h-40.98c-5,2.44-10.53,1.96-15.8,2.76-54.24,8.24-101.39,31.05-140.8,69.17C34.67,114.15,9.27,165.65,1.75,225.96c-.37,2.98.25,6.26-1.75,8.95v41.98c2.33,5.7,1.78,11.87,2.87,17.79,2.44,13.28,4.73,26.57,9.48,39.28,17.33,53.65,48.96,97,94.58,129.95,37.17,26.84,78.92,42.06,124.49,46.84,1.18.12,2.74-.63,3.49,1.06h39.98c6.12-2.04,12.59-1.78,18.87-2.8,73.2-11.92,131.19-48.18,173.42-109.06,10.28-14.82,18.51-30.95,25.41-47.84,5.52-13.52,9.73-27.23,12.85-41.38,2.25-10.2,4.5-20.4,5.31-30.85.08-1.03-.52-2.42,1.05-2.97v-40.98c-2.3-6.04-1.81-12.53-2.96-18.76ZM400.75,172.27c-5.81,8.66-12.94,16.07-21.53,21.97-2.31,1.58-3.16,3.37-3.35,6.1-1.65,24.08-7,47.28-17.05,69.29-24.52,53.7-64.94,88.57-122.86,101.53-44,9.84-85.47,1.41-124.43-20.65-.5-.28-.93-.68-2.33-1.72,31.67.78,61.15-2.21,85.8-25.14-4.66-.83-8.34-1.31-11.94-2.15-18.81-4.4-32.42-15.45-41.2-32.57q-2.5-8,6.36-8c4.74,0,9.49,0,15.7,0-24.37-13.29-44.55-28.09-43.91-59.05,8.01,3.74,15.43,7.54,25.02,5.69-11.91-9.85-20.56-21.05-23.33-35.92-2.7-14.5-.56-28.32,5.73-42.32,8.1,10.51,17.08,19.33,27.06,27.11,22.55,17.57,48.2,27.9,76.28,32.41,6.23,1,12.57,1.28,18.85,2.04,3.3.4,4.34-.7,4.06-4.08-.77-9.47-.89-18.9,1.6-28.26,5.96-22.43,29.61-40.31,54.08-41.64,18.26-.99,34.01,4.54,47.49,16.69,2.24,2.02,4.14,2.56,7.09,1.59,9.8-3.21,19.23-7.34,28.79-11.15,1.2-.48,2.75-2.69,4.15-.07-3.7,10.07-11.55,16.91-18.83,24.19-1.75,1.75-3.61,3.38-6.25,5.84,5.98-.08,10.79-1.64,15.66-2.52,3.76-.67,7.45-1.7,11.2-2.45.92-.19,2.31-.29,2.83.23,1.06,1.05-.15,2.12-.75,3.02Z" style="fill: #3b3b3a; stroke-width: 0px;"/>
</svg>