<?xml version="1.0" encoding="UTF-8"?>
<svg id="big-logo" data-name="Capa 1" xmlns="http://www.w3.org/2000/svg" viewBox="0 0 242.75 423">
  <path d="M240.85,403.23c-.99-.38-2.05-.55-2.91-1.23.51-.57,1.59-.36,1.82-1.32,0,0,0,0,0,0,.61.21,1.07.2.91-.66-.45-.62-1.09-.3-1.65-.32-.22-.03-.44-.05-.66-.08-.32.12-.48.17-.06.47.12.08.24.12.37.16-.13-.04-.26-.08-.37-.16-.43-.29-.26-.35.06-.47-.39-1.48.82-1.47,1.67-1.81.46-.18,1.08-.29,1.06-.95-.02-.73-.66-.87-1.22-.98-.95-.18-1.92-.3-2.87-.45-.98-1.34-2.38-.31-3.54-.65-.67-.19-1.64.51-1.99-.66.85-.18,1.78.12,2.58-.47-9.63-2.14-19.45-2.55-29.21-3.39,0-.13,0-.25,0-.38-3.46-.11-6.89-.44-10.21-1.15-.96-.05-1.92-.08-2.89-.09-.48,0-.92-.07-1.33-.18.04.37.08.74.11,1.12-2.92-.78-5.9-1.07-8.92-.97-.07-.3-.13-.61-.18-.91-.31.02-.62.01-.92-.03.08.54.16,1.08.26,1.62.17.91.09,1.31-.72,1.69-.2.09-.38.26-.41.42-.03.16.1.32.53.4,0,0,.09.01.09.01-.07.33-.27.31-.5.17h0s.02-.03.02-.03c-.6-.45-1.33-.42-1.52.07-.58,1.52-1.16,3.03-1.74,4.55-.13-.02-.25-.05-.38-.07-.19.86-.73,1.25-1.36,1.51.63-.27,1.17-.65,1.36-1.52-.76-.23-1.47.84-2.41-.15-.41-.43-1.36,1.18-2.43,1.03v.84c-.45-.01-.91-.02-1.36-.04-.11-8.28-.22-16.55-.34-24.83.16-.04.33-.03.51-.02-.22-.94-.49-1.87-.76-2.79-.03,0-.04.01-.07.01-.26-.91-.53-1.82-.79-2.73.03,0,.06,0,.09-.01-.12-.45-.22-.9-.31-1.35-.06.02-.12.02-.19.04-.16-.49-.32-.97-.48-1.46h.42c-.05-.41-.1-.83-.12-1.25-.24-.03-.47-.08-.69-.15-.27-.8-.53-1.6-.8-2.39.53-.45.19-.6-.24-.72-.48-1.59-.9-3.21-1.47-4.77-.86-2.32-1.75-4.69-4.69-5.09-.91-.12-1.83-.14-2.74-.18-1.56-.07-3.23.44-4.44-1.13-.36-.47-.92.15-.81.4.92,2.07-1.05,2.33-1.95,3.25-.02.12-.08.22-.18.28-1.7,2.9-3.64,5.67-4.62,8.94-.41-.23-.05-1.09-.8-1.05-.44,1.54-.34,3.2-1.75,4.38-.84.71-.04.83.56.86-.12.37-.56.76.09,1.06-.06.21-.12.42-.17.63-.45-.24-.86-.39-.98.33-.09.53-.77,1.2.35,1.43,0,1.57.28,3.14.03,4.65-.65.37-.91-.94-1.42-.25-.53.71-.1,1.27.59,1.67.19.11.36.28.53.42.06.14.12.28.18.42,0,.23,0,.47.01.7-.73.55-1.73,1.1-.08,1.76.03.36.05.71.07,1.07-.81.64-.96,1.58-1.06,2.59-1.47-1.15-3.32-1.14-4.02-.08-.82-.51-2.51-.44-1.15-2.31-1.88.82-2.21,2.32-1,3.36.62.53,1.34.85,2.15.96h0c-.31.55-.74.68-1.2.69-.46,0-.94-.11-1.37-.08-.43.03-1.01-.59-1.07-1.31-.15-1.8-.92-2.19-2.62-1.39-.69.13-1.27.02-1.54-.74.23-.08.4-.18.45-.3.04-.12-.03-.26-.3-.44-.03-.13-.05-.26-.08-.4,0-.02,0-.05-.01-.08-.25-.08-.55-.04-.75-.2.21.16.51.12.75.2.06-.51.12-1.02.17-1.53.4-.06.84.03,1.14-.35.75.39,1.29.28,1.79-.03s.95-.84,1.52-1.31c-.98-.07-1.69-.11-2.4-.16-.12,0-.24.01-.35.02-.46,0-.91.02-1.37.03-.24-.04-.47-.08-.71-.13-.14-.5-.4-.68-.87-.34-.34.24.11,1-.59.99-.51-.27.11-.79-.35-1.07-.68.8-1.53,1.56-2.2.15-.7-1.49-1.26-1.23-2.02-.14-.16.23-.4.4-.6.6-.62-.42-.95-1.39-1.98-1.01.2-.85.12-1.66-.35-2.41.35-.05.69-.09,1.04-.14.23,1.75,1.29,1.5,2.57,1.09-.52-.98-1.78-.88-2.14-1.83-.03.05-.07.09-.1.14-.34-.03-.68-.06-1.02-.08-.1-.99-.47-1.53-1.49-.85-.37.25-.75.2-1.14.2-.06-.29-.18-.55-.41-.74-.05-.04-.02-.13-.09-.16.01-.14.02-.29.03-.43-.3-1.18.77-2.4-.09-3.57.03-.68-.67-.61-.98-.93-.12-.1-.23-.2-.35-.3-.04-.11-.07-.23-.11-.34,1-.66,2.06-.51,3.12-.39-.06-.35-.11-.72-.11-1.09-1.95-.63-5.06-.6-6.14-.62-1.64-.03-2.84-.64-3.64-1.54-.02.14-.02.29.02.45-.61.01-1.27-.11-1.83.07-.81.26-1.62.71-.63,1.72-1.37.23-2.53-.43-3.75-.85-.05-.24-.01-.53-.06-.77-.05-.24-.18-.44-.57-.53-.74-.28-1.02.46-1.52.7-.69-.22-.84.58-1.35.71-.32-.27-.14-1.27-1.03-.7-.26.17-.33.4-.35.63-.02.24.02.49-.02.72-.32-.05-.7.05-1.05.07-.35.02-.66-.03-.86-.37-.4-.69-1.2-1.4-.76-2.32.45-.96,1.2,0,1.81-.12.76-.15,1.59.28,2.3-.31.57,0,1.14-.02,1.71-.03,1.62.11,3.25.22,4.87.33.47.5,1.01.68,1.65.34.43,0,.67-.25.88-.54-.21-.39-.38-.81-.48-1.24-.48-.16-.88-.5-1.19-1.07-.49-.89-1.46-1.16-2.27-1.63-.49-.87-1.46-.22-2.28-.81-1.45-1.06-.97-2.45-1.4-3.64-.25-.68.34-1.31,1.18-1.12.82.19,1.51.03,2.18-.37.16-1.8,1.27-3.42,3.54-3.86,1.25-.24,2.5-.56,3.74-.89.06-.59-.16-1.35-.08-1.93-.08.58.15,1.34.08,1.93,5.21-1.39,10.39-3.13,15.59-1.86.51-.11,1.04-.14,1.57-.07,0-.05,0-.1,0-.14.26-.13.31-.25-.01-.35-.07-.34-.14-.68-.21-1.02.06-.09.08-.19.07-.3.26-.56.62-.65,1.23-.48,2.73.79,5.5,1.01,8.3.41-.12.97.57,1.09,1.26,1.2.24.04.51,0,.5-.27,0-.83-.87-.51-1.25-.87-.1-.09-.32-.06-.49-.09.14-.2.29-.41.43-.61.3.04.61.08.91.12,1.1.51,2.61-.1,3.43,1.38.12.22.37.17.65.03.28-.14.59-.37.83-.5.17-.71.71-1.12,1.24-1.5-.53.39-1.07.79-1.24,1.5,2.02-.05,3.53,2.1,5.88,1.45-.52-.86-1.6-.63-2.08-1.48,2.19-.6,4.14.63,6.16.35,1.88.9,3.89.72,5.85.51,2.51-.27,4.93.01,7.33.7h0c.8.22,1.6.43,2.39.65,1.2.77,2.52,1.41,3.33,2.66.04.6.13,1.18.27,1.75.54-.04,1.09,0,1.63.12-.05-.36-.07-.71.07-.95,1.28-2.19.7-4.56.88-6.86-.36-.34-.39-.69-.02-1.05.06-.11.06-.22,0-.33.24-.8.25-1.47-.87-1.47-.06-.15-.13-.29-.19-.44-.64-.38-1.32-.19-1.99-.13-.36-3.85-.37-4.04,2.99-4.99-.11-.7-.22-1.4-.32-2.1-.1-.71-.2-1.42-.28-2.13-.04-.36-.08-.72-.11-1.08-.08-.29-.16-.59-.25-.88-.03-.1-.05-.19-.08-.29-4.13-1.16-8.44-1.27-12.61-2.19-.25-.24-.54-.22-.84-.11-1.92-.26-3.84-.52-5.77-.78-.72-.41-1.81.12-2.42-.58-2.59-.3-5.18-.63-7.78-.85-.01.02-.02.04-.03.06l-.13.08c-4.93-.68-9.93-.25-14.86-.85-.86.06-1.72.15-2.48-.39-.46-.06-.92-.12-1.38-.17-3.68.08-7.35-.88-11.03-.02-.88-.11-1.65-.36-1.75-1.43-.06-.68.31-1.51-.65-1.88-.3-1.1-1.44-.27-1.83-.71-1.44-1.62-2.81.36-4.22-.01-.35-.09-.52.52-.45.96v.02c-.86-.19-1,.81-1.68.95-2.22-2.05.6-2.18,1.26-3.14-.05-.36-.2-.53-.39-.61.19.08.34.25.39.61.29-.04.63-.13.62-.44-.13-2.22,1.39-2,2.82-1.94.06.58-1.02.95-.34,1.62.4.4.59-.43.99-.26.54,1.58,1.9,1.39,3.12,1.38.81,0,1.44-.36,1.34-1.35.44-.05.89-.09,1.33-.14h0c.81.97,1.66,1.54,2.64,1.73.98.19,2.11-.01,3.48-.57.47,0,1.05-.02,1.1-.57.06-.75-.65-.39-1.02-.5-.5-.15-.84-.45-1.24-.79-.86-.74-1.83-1.44-2.87-1.88-.8-.34-1.6-.02-1.61,1.12-.53.26-.53.76-.54,1.25-.34-.21-.67-.43-1.03-.52-.35-.09-.72-.05-1.13.27-.29.23-.91-.06-.81-.16,1.13-1.09-.77-.73-.56-1.41,1.03.32,1.7.15,2.16-.31.46-.46.71-1.2.91-2.02-.73-.01-1.47.03-2.2-.01.73.04,1.47,0,2.2.01.28-.03.54-.09.69-.37.76.08,1.28-.1,1.53-.96.34-1.17.94-1.18,1.55-.13.11.2.24.39.38.57.27.35.8.63.58,1.15-.29.67-.8-.08-1.2.1-.19.08-.38.19-.7.36,1.76,1.32,3.49,2.1,5.61,1.71.27-.05.8-.02.82.05.29,1.39,1.66,1.41,2.54,2.05-.05.44-.11.89-.16,1.33.97.21,1.69,1.54,2.82.84.44-.27.91-.47,1.38-.64-.06-.29-.1-.58-.1-.88-.63.06-1.24-.02-1.79-.38-.43-.27-.82-.7-1.18-1.34-.26-.75-.85-1.03-1.47-1.25-.62-.22-1.28-.38-1.71-.9.39-.61,1.29.06,1.64-.61.02-.5-.79-.37-.64-.63.39-.68.11-.89-.48-1.04-.73-.18-.86.36-1.05.85-.14.37-.3.74-.46,1.11-.67-.38.11-1.56-1.01-1.73-1.57-.23-2.44-1.18-2.66-2.77-.05-.33-.65-.67-.04-.95.43-.2.9-.04,1.17.42.25.43,0,1.25.91,1.19.73.16,1.46.32,2.19.48,1.04.86,2.14.84,3.3.28.23-.01.46.01.67-.04.48-.11,1.14-.15,1.02-.85-.14-.82-.7-.39-1.19-.31-.61.1-1.24.06-1.85.08-.26-.22-.53-.45-.79-.67-.08-.21-.16-.43-.24-.64.16-.1.46-.2.47-.31.04-.36-.3-.34-.55-.38-.11-.01-.22-.03-.33-.04.13-.49-1.44-.54-.33-1.28.46-.02.93-.05,1.39-.07.3-.04.82.07.81-.32-.01-.57-.56-.31-.9-.34-.6-.1-1.39.21-1.78-.28-1.33-1.67-1.08-.12-1.27.57-1.51-.29-1.98-2.31-3.77-2.23-.36.02-1.04-.45-.08-.98.47-.25-.16-.82-.37-.92-.98-.48-2-.87-3.04-1.2-.26-.08-.7.27-.87-.17-.15-.37.27-.59.43-.88.22-.39.52-.68.96-.34.37.29.67.71,1.14.19.4-.44.24-.92.13-1.45-.39-1.84-2.33-2.23-3.43-3.92.77,2.07-1.45.76-1.46,1.86,0,.11,0,.23,0,.34-.77.08-1.25.79-1.48,1.25-.33.67-.73.96-1.18,1.04-.45.08-.95-.04-1.49-.2-.23-.12-.46-.24-.68-.35-.26-1.03-.54-1.87.46-2.92,1.52-1.6,1.23-2.28-.91-2.89-1.32-.38-1.74-1.14-1.6-2.38-.06-.8-.66-.36-1.01-.4-.93-.12-1.93.19-2.79-.42.44-.5,1.22-.32,1.62-1.1.84-1.61,1.46-1.53,2.53.11.05,1.19.43,2.23,1.75,2.39,1.3.16,2.76.59,3.78-.87-.52-.21-1.08-.11-1.6-.11s-.99-.09-1.33-.7h0c.2-.02.51.17.74.2.23.03.36-.1.2-.74-.21-.83.22-1.22.97-1.21.98.02,1.33-.78,1.13-1.3-.25-.65-1.37-1.56-1.71-1.28-1.13.9-1.24-.29-1.75-.6-.91-.55-1.1-1.68-1.85-2.38.05-1.23.04-2.3-1.65-1.16-.36.24-.97.1-1.47.13-.63-.61-.23-1.39-.35-2.08,1.15.39,2.25.72,2.66-.98.04-.18.45-.34.71-.38.59-.08,1.25-.06,1.08-.91-.18-.87-.91-1.16-1.69-1.1-.73.06-1.43.34-2.16.46-1.85.29-1.62-1.59-2.01-2.39-.46-.95.93-.32,1.43-.58.97.72,2.17-.32,2.14-.54-.07-.49-.11-1.03-.24-1.53-.13-.5-.36-.97-.83-1.34-.3-.04-.57,0-.74.29-.51,0-.84.28-1.1.68,0,0-.09.02-.09.02-.05-.15-.1-.29-.16-.44-.26-1.01-1.27-.31-1.82-.78.27-.42.53-.83.79-1.24,1,.16,1.91-.08,2.75-.64.51-.1,1.11.15,1.6-.35-.57-.57-1.15-.29-1.68-.28-.67-.03-1.34-.06-2.01-.09.08-.6-.27-1.52.33-1.74,2.05-.75.77-1.78.37-2.76-.01-.28-.08-.53-.35-.67,0-.35,0-.69,0-1.04,2.05-.67,3.35-1.89,3.21-4.24-.02-.27.17-.54.26-.81,1.24-.32,2.58.09,3.79-.51,2.74-.02,3-.3,3-2.78-.01-3.9.02-7.8.04-11.71.89.13,1.58-.44,1.68-1.1.12-.83-.84-1.05-1.5-1.32,0-.57-.02-1.13-.03-1.7,1.01,0,1.09-1.13,2.05-1.39-.41-.24-.85-.33-1.2-.49-.35-.16-.6-.39-.61-.9.23,0,.46.05.69.02.38-.06.68.86,1.09.11.24-.45.89-.83.35-1.49-.56-.69-.23-1.51-.27-2.46-1.29,3.55-4.14,1.55-6.31,2.17.42-1.6.18-2.28-1.05-2.84-.43-.19-.63-.38-.69-.84-.12-.95.46-2.14-.35-2.79-.87-.71-1.83.2-2.71.5-1.23.42-1.52-1.18-2.46-1.11-1.04.08-.47,2.19-2.05,1.8-.36-.23-.71-.46-1.07-.68-.16-.48.05-.71.32-.89.27-.18.62-.31.73-.6.65-.3,1.41-.4,1.81-1.04-.42-.66-1.8.24-2.21-.34-.14-.19-.17-.55-.02-1.18.18-.18.37-.36.55-.55,1.07.21,2.13.35,3.16-.67-.46-.19-.93-.24-1.29-.36-.36-.13-.62-.34-.66-.87.69-1.12,1.04-1.67.86-2.03-.18-.36-.87-.51-2.27-.82-.17-.04-.34-.05-.51-.08.14-.42-.14-.56-.46-.68-.22.05-.43.1-.65.15-.25.08-.49.17-.74.25-.1-.18-.18-.47-.32-.51-.25-.08-.35.18-.4.41-.12-.05-.23-.1-.35-.15-.25-.06-.57,0-.83-.05.26.05.58-.01.83.05-.11-.25-.22-.51-.33-.76.37-.76-1.53-.39-.69-1.39.88.19,1.46,1.06,2.42,1.05,0,0,0,0,0,0,0,0,0,0,0,0,0,0,0,0,0,0,0,0,0,0,0,0,.13.37.27.74.4,1.1.22-.05.43-.1.65-.15.14-.19-.03-.47-.11-.72-.08-.25-.07-.48.44-.58.81.11,1.61.71,2.48.13-.26-.54-.83-.41-1.15-.72.25-.41.16-.94.05-1.39-.11-.45-.25-.82-.12-.91,1.15-.87.21-1.6.1-2.37.8-.08,1.49.54,2.31.34.69.04,1.28.18,1.16,1.09-.25,1.61-.24,1.62,2.09,1.24-.25-.21-.6-.3-.89-.46-.29-.15-.51-.37-.49-.84,0,0,0-.16,0-.16.13-.15.26-.3.4-.45.17-.34.35-.68.32-.91s-.27-.34-.94-.23c-.5.08-1.02.08-1.54.11-.53-.63-1.09-1.13-2.02-.97-.38.07-.72-.05-1.02-.44-.52-.7-.95-.89-1.32-.75-.37.14-.67.61-.93,1.23-.11.13-.14.38-.22.56-.08.18-.21.28-.5.13-.82-.43-.61.37-.88.6-.27,0-.55.13-.82.19-.27.07-.55.07-.82-.19,1.37-1.64,2.81-3.18,4.76-4.15.44.89,1.02,1.53,2.14,1.41.28-.03.57,0,.71.24.03-.39.68-.48.69-.95-1.01-.46-2.25-.33-3.18-1.07.5-.87,1.22-1.52,2.05-2.06.02,0,.02.02.04.02,0-.02-.02-.02-.02-.04l-.03.02c.91-1.72,2.72-2.39,4.16-3.48,2.61-1.98,5.6-3.35,8.56-4.74.38-.18.72-.31,1.03-.4.31-.31.65-.59,1.05-.79,3.33-1.63,6.8-2.92,10.48-3.27.15-.04.31-.07.5-.09,4.8-.56,9.48-.27,14.15,1.21.98.31,1.63.76,2.1,1.32,2.19-.78,4.67.14,5.9,2.06,0-.05-.01-.1-.02-.15-.13-1.23-.21-2.37.55-3.41.1,0,.2-.02.3-.03.79.02,1.28-.6,1.92-.9.17.19.34.37.51.56.14,2.08.94,4.02,1.3,6.05.12.69.45,1.43-.36,2.03-.46.34-1.18.91-.48,1.54.68.62.89-.38,1.33-.63.13-.07.31-.04.49-.06,1.62,6.15,2.92,12.34,5.27,18.24,1.69,4.27,3.06,8.67,4.54,13.02.22.65.68,1.45-.53,1.73-.34.08-.58.34-.37.79.19.41.24,1.01.86.85.7-.19.87.1,1.02.71,2.04,7.89,4.77,15.58,6.92,23.45,1.91,6.98,3.69,14.02,6.31,20.8.59,1.53,1.09,2.88-.27,4.24-.59.59-.07,1.16.32,1.48.49.4.58-.32.85-.55.18-.16.15-.59.65-.42,1.41,5.98,2.64,12.04,4.57,17.92.24.73-.03,1.26-.64,1.6-1.66.91-1.23,2.03-.52,3.26.86-.59,1.14-3.18,2.59-.59.05.09.32.08.48.08,1.38.07,2.63-1.46,2.31-2.8.44-.59,1.17-.26,1.71-.52,1.19-.07,1.53-1.04,1.98-1.89.15-.14.29-.28.44-.41.48.14.9.1,1.25-.3,1.12-1.27,2.8-1.78,4.05-2.89.23-.2.81-.94,1.12.09.51,1.67,1.18.54,1.57-.02.3-.43.26-1.09.37-1.65,1.27-.55.69-1.49.48-2.34-.08-1.24-.45-1.59-.86-1.02-1.18,1.63-1.1.23-1.37-.48-.19-.5-.11-1.15-.71-1.45.04-.09.03-.17-.03-.25.19-1.35-1.18-2.72.05-4.09.1-.11.26-1.16-.71-.91-.29-.02-.61.04-.8-.27-.12-.31-.25-.62-.37-.93-.82-2.24-1.58-4.51-2.47-6.72-.34-.84-.88-1.48.52-1.81.66-.15.92-.8.5-1.36-.37-.49-.93-.83-1.57-.16-.22.23-.41,1.24-1.06.33-.09-1.8-.97-3.33-1.67-4.93.15-.93-.52-1.6-.75-2.4-1.41-3.53-2.81-7.06-4.22-10.6-.1-.24-.19-.49-.29-.73-.02-.46-.57-.89-.02-1.39.78-.71.34-1.28-.27-1.81-.11-.1-.22-.2-.33-.3h0c-.1-.73-1.28-1.38-.07-2.21,1.19-.82.62-1.45-.31-2-.87-.51-1.67-1.1-2.02-2.11-.71-2.06-1.39-4.12-2.12-6.17-.29-.82-.48-1.54.57-1.97.51-.21.63-.64.35-1.14-.25-.43-.62-.81-1.11-.47-1.01.69-1.04-.11-1.31-.73-.75-1.73-.99-3.65-1.96-5.31-.31-.79-.62-1.58-.92-2.37-.15.21-.29.41-.44.62h0c.15-.21.29-.41.44-.62-.03-1.42-1.38-2.63-.69-4.18.08-.17-.14-.34-.34-.49-1.16-.86-1.38-3.02-.41-4.04.33-.35.4-.67.26-1.07-.13-.38-.56-.6-.82-.44-1.15.7-.95-.43-1.26-.87-.02-.78-.16-1.51-.76-2.07-.79-3.03-1.79-5.99-3.05-8.86-.4.18-.33.51-.23.85-.1-.34-.17-.67.23-.85-.35-1.05-.67-2.11-1.29-3.04-.42-1.64-1.08-3.19-1.84-4.69-.56-1.47-.49-3.15-1.54-4.45v.02c-.03-.07-.07-.1-.14-.09-.13-.34-.25-.68-.38-1.03-.3-.86-.59-1.73-.89-2.59.28-.33.56-.67.98-1.18-1.06.04-1.68-.4-2.08-1.15-.08-.2-.16-.4-.24-.6-.48-.15-.51-.5-.39-.91.09-.54-.29-1.1.08-1.64.18-.27.04-.72-.2-.67-1.77.38-1.27-1.39-1.97-2,.9-.95,1.92-1.62,3.31-1.41.82.13,1.36-.28,1.09-1.02-.48-1.31.28-2.13.89-3.05h0c.39-1.31-.18-2.47-.6-3.63-1.53-4.17-3.63-8.1-5-12.33-.09-1.6-1.28-2.83-1.72-4.73,4.01,2.01,8.18,1.95,12.07,3.11h0c-.02.5.38.51.71.58-.3,2.45.04,2.71,2.29,1.77.13,1.03.25,2.06.38,3.09-.65.53-1.55-.6-2.11.32-.27.44-.51,1.02-.18,1.44.45.58,1.15.83,1.93.67.47.04.82.18.97.54,1.1-.31,2.36-.23,3.64.45.69.36,1.39.68,2.1.97,2.51.9,5.13,1.39,7.81,1.66.97.1,1.53.49,1.67,1.41.61.21,1.23.43,1.83.67-.06-.41-.09-.85-.07-1.33,3.98,1.13,7.82,2.28,11.68,3.3,6.53,1.73,13.21,2.74,19.86,3.87,5.33.91,10.59,2.19,15.88,3.31.26.34.28.71.26,1.09h1.68c0-.54.29-.71.77-.68-.31-.84-.6-1.7-.87-2.57-.09-.06-.18-.14-.27-.25-.06-.15-.11-.3-.17-.45-.02-.19-.04-.38-.06-.58-.06-.38-.12-.76-.18-1.15-.61-2.42-1.06-4.91-1.38-7.43-.54-.12-1.08-.23-1.61-.36.54.13,1.07.24,1.61.36-.56-4.39-.74-8.88-.71-13.25-.02,0-.05,0-.07-.01,0-.06,0-.13-.01-.19-.34-.1-.68-.19-1.02-.29.02.07.04.14.06.21.25.19.17.3-.09.35l-.03.02c-.18-.01-.36-.02-.55-.04-.12-.08-.22-.17-.28-.26-.21.42-.57.32-.79-.22-.25-.63-.65-.76-.95-.39-.63.76-1.3.45-1.99.32-1.83-.36-3.66-.75-5.49-1.13-.95-.23-1.5-.87-1.88-1.67-.4-.09-.81-.19-1.21-.29-.01.41,0,.83-.01,1.24-.12.02-.24.05-.36.07-.74-.29-1.47-.77-2.24-.85-6.07-.65-11.86-2.61-17.83-3.72-2.07-.57-4.13-1.15-6.2-1.72-.55-.15-1.14-.23-1.24-.96-.03-.19-.09-.32-.18-.43-.3-.07-.6-.13-.9-.19-.37.14-.27.59-.41.89-.56-.02-1.12-.04-1.68-.06-.68-.69-2.01-.47-2.35-1.66-.02-.06-.38-.13-.44-.06-1.24,1.48-2.48.19-3.68-.03-2.11-.38-4.16-1.04-6.25-1.52-1.62-.1-3.24-.22-4.81-.55-.05,0-.11,0-.16,0-.02-.02-.04-.03-.05-.05-.35-.08-.7-.16-1.05-.26-1.02-.31-1.97-.77-2.88-1.29.02.11.06.23.12.37.69,1.38-.09,2.78.55,4.11.35.73-.1,1.24-.99.86-1.24-.53-1.74-.16-1.53,1.17-1.59-.28-2.92-1.32-4.55-1.48-.22-.11-.45-.21-.67-.32-1.68-2.05-2.11-2.16-4.88-1.3-2.53-.4-5.19-.57-5.58-4.01-.06-.56-.63-1.05-.96-1.58-1.37-1.77-3.04-3.11-5.21-3.78-1.14-1.71-1.63-3.84-3.18-5.26-1.3-1.2-1.26-2.46-.57-3.86.59-1.2.44-2.08-.9-2.58-.58-3.75-1.44-7.42-3.23-10.8-.25,0-.5.01-.75.02.02,2.11.4,4.17,1.09,6.16-.69-1.99-1.07-4.05-1.09-6.16.25,0,.5-.01.75-.02-.19-1.37.19-2.97-1.46-3.77.86-1.13.16-2.12-.29-3.13,0-2.3-.76-4.45-1.28-6.65-.28-1.18-.27-2.48-1.2-3.44.04-.09.03-.17-.02-.25.24-.6-.1-1.11-.26-1.64-.68-2.34-1.38-4.67-2.01-7.02-.08-.3-.5-.98.12-1.06-.13-.44-.25-.87-.37-1.31-.49-.04-.7-.5-.88-1.04-.18-.52-.15-1.15-.72-1.47l.05.03c-.5-4.22-1.79-8.24-3.09-12.25-.34-2.33-1.25-4.5-1.87-6.75-1.46-6.82-3.74-13.4-5.84-20.04-.04-.14-.07-.28-.11-.42-.58-1.94-1.16-3.88-1.74-5.82-.59-2.51-1.16-5.03-1.77-7.54-.86-3.5-1.75-7-2.62-10.49.24.02.49.05.71.04-.2-.69-.4-1.38-.61-2.06,0,0,0,0-.01,0-1.59-.04-1-1.32-1.16-2.04-.14-.62.05-.71.33-.65-.42-1.26-.86-2.51-1.34-3.74-.36-.33-.63-.78-1.03-1.07-.34-.24-.27-.75-.43-1.13-.55-.18-1.1-.36-1.65-.55-1.07-.15-2.13-.32-3.09.54-.52.45-1.01.17-1.55.01-2.73-.77-5.29-2.06-8.12-2.55-.81-.14-1.71-.21-2.29-.99-.74-.97-1.63-.93-2.58-.31-1.26.06-2.57.27-2.9-1.51-.02-.11-.07-.2-.14-.29-.23-.05-.45-.11-.67-.16-.42.16-1.19.31-1.05.67.77,2.04-1.07.83-1.77,1.33.97.57.56,2.12,1.76,2.18,1.55.08,1.79,1.18,2.2,2.21,1.34,3.4,2.65,6.82,3.98,10.23.03.1,0,.16-.07.21.39.83.78,1.66,1.15,2.5.35.51.6,1.15.82,1.84.06.17.12.34.18.51,2.24,5.47,4.04,11.1,5.62,16.32,1.1,3.19,2.21,6.38,3.37,9.56.62,1.72,1.45,3.36,1.68,5.33-.16-.03-.3-.06-.43-.09.14.43.27.86.41,1.29.39.22.56.68.76,1.15,1.93,4.49,3.7,9.04,4.94,13.78-.12.33.39.74-.2,1.04-.67.34-.45,1.09-.03,1.21,1.14.32,1.19,1.33,1.48,2.1.88,2.29,1.43,4.74,2.48,6.94,2.54,5.29,4.24,10.88,6.25,16.37,1.25,3.43,2.67,6.8,4.01,10.2,1.47,2.47,1.98,5.37,3.54,7.8.28.44.68,1.01,0,1.51,1.08.98,1.16,2.11.55,3.37,0,.02.27.18.41.27,1.17.68,2.04,1.65,2.66,2.83-.02.23-.05.46-.07.7-.17.07-.34.14-.51.21-2.3.82-4.84.98-6.86,2.54-1.45.79-3.09,1.02-4.62,1.59-2.29.57-4.63.99-6.81,1.95-1.51.24-2.78,1.54-4.46,1.05-.31-.07-.61-.13-.92-.2-.62-.44-1.3-.67-2.06-.64-.51-.4-1.12-.53-1.73-.7-6.11-1.73-12.29-3.2-18.35-5.12-1.12-.36-1.75-.7-1.18-1.57-.51,0-1.03-.08-1.55-.27-.32.93-.97.85-1.9.49-1.32-.51-2.63-1.12-4.1-1.09-.09-.07-.2-.09-.31-.06,0,0,0,0,0,0-.53-.64-1.3-.82-2.04-1.08-3.86-1.36-7.88-2.02-11.85-2.89-1.96-.49-3.85-1.24-5.86-1.51-4.2-1.94-8.67-3.05-13.1-4.26,0,0,0,.08,0,.08-.93-.71-2.07-.87-3.14-1.23-.35-.04-.7-.08-1.04-.13-.18-.59-.71-.25-1.05-.4,0,0,.01,0,.02.01-1.64-1.26-3.72-1.54-5.53-2.43-.7-.34-1.27-.58-.47-1.43.01-.02.03-.03.04-.05-.52-.12-1.04-.23-1.56-.34-.46.9-1.15,1.13-2.16.61-1.65-.64-3.3-1.27-4.95-1.91-.03-.07-.06-.15-.09-.22-.35-.07-.7-.15-1.05-.23.17,2.69-.11,5.43-.16,8.11-.13,6.85.85,13.65,1.19,20.48.73-.1,1.46-.19,2.19-.27.07-.87.83-.85,1.99-.67.51.08.82.25,1.01.49.86,0,1.72.02,2.59.12,1.83.2,3.62.56,5.39.99.27.04.54.07.81.09.8.04,1.38.24,1.81.6.81.23,1.62.46,2.42.69.08-.21.28-.33.78-.26,2.61.38,5.21.84,7.82,1.2.73.1.95.52,1.08,1.11,0,.05.01.1.02.15.67.08,1.35.13,2.04.16,0-.32.01-.64.02-.96,2.43.54,4.85,1.13,7.3,1.6.94.18,1.79.26,1.9,1.47.07.7.54.77,1.12.53,1.17-.14-.11-1.13.5-1.47.41.06.82.12,1.23.18.12.02.24.03.36.05h.02c.49-.06.97-.1,1.36.3,2.71.28,5.41.66,8.01,1.26-2.47.67-4.93,1.69-7.66,1.63-.95-.02-1.5,1.15-1.2,1.9.42,1.03-.27,1.47-.58,2.14-.25.23-.51.47-.76.7-1.38,1.07-2.74,2.18-3.88,3.52-.73,1.43-1.73,2.65-2.96,3.69-1.37,1.16-3.05,2.16-4.18,3.3-1.5,1.52-3.54,3.08-3.94,5.55-.76.73-1.08,1.72-1.53,2.63-.02.07-.03.13-.01.2.57-.65,1.26-1.1,2.03-1.45-.78.35-1.46.8-2.03,1.45-.01-.07,0-.14.02-.21-.14.21-.28.42-.42.63-1,1.86-2.83,3.29-2.95,5.61-.09.64-.88.95-.8,1.67-.29.1-.49.29-.52.62-.03.27-.2.65-.08.8,1.33,1.65,1.14,3.58,1.12,5.49.25.26.57.22.89.2.97.34,1.93.67,2.9,1.01.19.19.39.38.58.57-1.01,3.05-.51,3.24,2.38,3.24,2.95,0,2.98-.04,2.02,2.95-.24.74-.46,1.35.43,1.76.45-.06.9-.21,1.34-.16-.44-.04-.89.11-1.34.17-.25,1-.49,2.01-.74,3.01-1.75,7.09-2.93,14.3-4.84,21.37-3.28,12.1-5.68,24.41-8.43,36.64-4.28,19.02-9.02,37.92-13.51,56.89-.9,3.8-2.08,7.53-2.57,11.42-.12.5-.21,1.01-.35,1.51-.77,2.82-1.53,5.65-2.35,8.46-.23.8-.62,1.33-1.53.44-.97-.94-3.24.08-3.45,1.5-.2,1.38-.43,2.72-.35,4.17.08,1.62.39,2.21,2.04,2.03,1.3-.14,2.22.23,1.55,1.89-.29.74-.28,1.59-.53,2.35-.44,1.33.27,1.9,1.37,1.99,1.07.09,2.61.79,2.82-1.15.15-1.41.78-2.64,1.14-3.96.17-.64.54-.76,1.14-.71,2.41.17,4.81.38,7.22.41,1.14.02,1.56.4,1.42,1.48.17,0,.34,0,.51,0,.02-.34.04-.69.05-1.04-.02.35-.04.69-.05,1.04-.17,0-.34,0-.51,0-1.35,5.27-3.06,10.45-3.51,15.92.18.1.36.21.54.31,1.11-4.96,2.23-9.92,3.33-14.88-1.1,4.96-2.22,9.92-3.33,14.88-.18-.11-.36-.21-.54-.31-.88,4.83-2.21,9.57-2.49,14.5-.33,1.9-.8,3.79-.95,5.71-.11,1.36-.67,1.66-1.89,1.65-1.05,0-2.15,0-3.15.47-.57.16-.81.62-.99,1.13-.41.41-.56.94-.74,1.47-.37,1.09-.11,2.51-.69,3.28-.59.78-2.13-.13-3.2.35-.15.07-.33.07-.5.11-.65-.15-1.08.17-1.45.65-2.19,1.12-2.77,3.33-3.3,5.39-.58,2.27-.88,4.5-3.99,4.28-.04,0-.08.08-.12.12-1.32-.28-2.47.37-3.62.8-3.97,1.47-4.1,2.19-1.12,5.15.33.33.77.59.17,1.06-1.04.83-.51,1.43.29,2.02.88.64,1.83,1.17,2.85,1.54.72,2.26,2.92,1.93,4.75,2.49-.79.63-1.49.34-2.14.39-.89.08-1.96-.25-2.53.67-.59.96.4,1.71.73,2.48.61,1.4,3.08,1.93,3.97,1.01,0,0,0,0,0,0,.45.03.9.06,1.36.1.81.78,1.73,1.29,2.9,1.28,1.7-.02,3.39,0,5.09-.01.96,0,1.93,0,2.25,1.29-2.4.42-4.76.33-7.09.58-.76.08-2.14-.03-2.15.89-.01.86,1.34.89,2.13,1.01,3.97.57,7.97.79,11.98.69,2.8-.07,5.61-.21,8.41-.32q1.54.06,1.74.5c-.63.08-1.26.15-1.88.24-.53.08-1.35-.13-1.37.62-.02.57.8.57,1.25.63,2.55.38,5.1.78,7.7.82,11.34.14,22.66-.13,33.98-.75,1.32-.07,2.64-.11,3.96-.19,5.96-.34,11.93-.64,18.18-.44-2.72,1.33-5.65,1.22-8.02,2.99,24.57,2.02,49.04.65,73.53-1.48-.83-.62-1.88-.36-2.66-1.09.83-.47,1.69-.42,2.55-.44,6.15-.11,12.3.03,18.46-.31,6.14-.33,12.27-.7,18.39-1.31.53.02,1.03-.04,1.47-.16.82-.09,1.64-.16,2.46-.26,6.92-.83,13.7-2.19,20.33-4.31,1.2-.38,2.44-.93,3.34-2.06-1-.45-2.18.19-3.06-.94,2.75.14,5.23-.6,7.75-1.06.65-.38,1.44-.46,2.18-.65-.74.19-1.53.28-2.18.65.91.02,1.82.04,2.73.06.08.12.15.23.23.35,0,0,0,.01,0,.02.14.31.34.28.54.27-.2,0-.4.04-.54-.27-.57.5-1.13.99-1.7,1.49-.24.22-.92.32-.61.69.29.35.57-.22.78-.49.14.08.25.16.34.23.63-.52,1.25-1.05,1.88-1.58.66-.55,1.32-1.09,1.99-1.6.44-.33.89-.65,1.34-.95.32-.21.65-.42.98-.64.49-.31.97-.63,1.46-.93.11-.17.17-.36.17-.61-.04-1.07-1.16-1.14-1.89-1.41ZM147.48,326.02c1.16-.38,1.8-.69,2.04-1.19-.24.49-.88.81-2.04,1.19,0,.1-.02.2-.05.3.02-.1.04-.2.05-.3ZM128.09,341.46c.25.23.3.52.31.82-.02-.3-.06-.59-.31-.82,0-1.14-.03-2.29-.02-3.43-.01,1.14,0,2.29.02,3.43ZM115.31,326.32c.57.16,1.15.1,1.72.15-.58-.05-1.16.02-1.74-.15h.02ZM107.64,321.15c.03,1.26.06,2.52.09,3.79.22,0,.45-.02.67-.03,0-.25.24-.23.37-.34-.13.1-.37.09-.37.34-.22,0-.44.02-.67.03-.03-1.26-.06-2.52-.09-3.79-.16-.05-.22-.41-.32-.62.11.21.16.56.32.62ZM116.67,307.98c.09.69.58,1.37,0,2.06-1.14-.69-2.65-1.01-2.76-2.74.92.23,1.85.45,2.77.68ZM107.97,306.96c.59,0,1.17,0,1.76,0,.21.45.42.9.64,1.35h0s.02.07.03.11c-.01-.04-.01-.07-.03-.11-.26.06-.51.11-.77.17-.8-.23-1.83-.21-1.62-1.52ZM110.61,238.51c-.09,2.06-.27,4.13-.09,6.19h0c-.18-2.07,0-4.13.09-6.19ZM103.52,233.71c.23,0,.47-.01.7-.02-.23,0-.47.01-.7.02-.81.23-1.29.63-1.54,1.16.26-.53.74-.93,1.54-1.17ZM194.81,285.34c.32.18.75.25,1.03.47-.28-.22-.71-.29-1.03-.47h0ZM194.46,287.23c.22-.01.44-.03.66-.04h0c.3.15.59.3.89.45.12-.11.18-.3.28-.44-.1.14-.15.34-.27.44-.27.44-.55.88-.82,1.33.27-.44.55-.88.82-1.33-.3-.15-.59-.3-.89-.45-.22.02-.44.03-.66.05h0ZM193.51,283.61c.38.15.44.55.54.92-.1-.37-.16-.76-.54-.92-.31-.29-.65-.49-1.05-.53.4.04.74.24,1.05.53ZM188.25,279.97c0,.74.42,1.03,1.09,1.07-.67-.04-1.1-.33-1.09-1.07h0ZM237.39,164.49c-.15-.91-.31-1.81-.46-2.72-.39,0-.78-.02-1.17-.02.39,0,.78.02,1.17.02.15.91.31,1.81.46,2.72ZM235.62,156.1c.58.23.84.61.96,1.05-.13-.44-.39-.83-.97-1.05h0ZM223.73,160.55c.16-.06.32-.13.48-.19-.16.06-.32.13-.48.19-.14.03-.27.06-.41.1.18.33.51.38.83.45.12.11.25.21.37.32-.12-.11-.25-.21-.37-.32-.32-.07-.65-.12-.83-.45.14-.03.27-.06.41-.1ZM190.45,147.49c.44.14.53.42.32.82.11.7.48,1.07,1.02,1.23-.54-.16-.92-.54-1.02-1.23-.38-.17-.5-.44-.32-.82ZM178.86,164.03c0-.15.02-.31.02-.46,0,.15-.02.31-.02.46-.3.06-.47.16-.5.28.03-.13.2-.23.5-.29ZM157.45,188.57c.8.26,1.07.96,1.37,1.63-.3-.67-.57-1.37-1.37-1.63h0ZM150.2,159.65c.29.67.58,1.34.88,2.01l.08.04s-.08-.04-.08-.04c-.29-.67-.58-1.34-.88-2.01-.12-.02-.24-.05-.37-.07,0,0-.04.04-.04.04l.04-.04c.17-.25.29-.17.37.07ZM150.03,136.47c-.26-.19-.53-.35-.85-.32h0c.32-.04.59.13.85.32ZM149.56,159.62h0c-.57-1.03-.76-2.16-.94-3.29.18,1.13.37,2.26.94,3.29ZM147.13,149.59h0c-.52-.03-.89-.27-1.18-.63.29.36.66.6,1.18.63ZM145.09,166.58c.4.04.55.2.59.42-.04-.21-.18-.38-.59-.42-.02-.39-.29-.62-.53-.87.24.25.51.47.53.87ZM145.68,169.03c.45,1.11.91,2.23,1.36,3.34-.45-1.11-.91-2.22-1.36-3.34-.58-.28-1.28-.22-1.83-.57.55.35,1.25.29,1.83.57ZM142.68,133.3c.1,0,.19,0,.29,0-.1,0-.19,0-.29,0-.49.02-.98.04-1.47.06.47-.54.96-.44,1.46-.06ZM95.87,19.98c.02.2.05.41.07.61,0,0,0,0,0,0-.34-.17-.37-.37-.07-.61ZM93.69,4.12c.24.13.45.31.56.63.1.21.27.26.46.28-.19-.01-.35-.07-.46-.28-.11-.32-.32-.5-.56-.63ZM95.54,22.72c-.51-1.53-.94-3.09-1.44-4.63.49,1.54.93,3.1,1.44,4.63,0,.65.22,1.25.49,1.82-.26-.58-.48-1.17-.49-1.82ZM96.5,16.38c-.14-.53-.27-1.06-.41-1.59.14.53.27,1.06.41,1.59.12.39.16.65.14.83.02-.18-.01-.44-.14-.83ZM98.06,16.45c-.6-1.48-1.2-2.96-1.8-4.44.6,1.48,1.2,2.96,1.8,4.44.1,0,.2.04.28.1-.08-.06-.18-.09-.28-.1ZM105.06,40.21h0c.61.21.83.67.99,1.16-.16-.5-.38-.95-.99-1.16ZM106.21,19.57c-.09-.41-.03-.62.12-.73-.14.11-.2.33-.11.73.3.09.4.26.42.46-.02-.2-.12-.37-.42-.46ZM118.81,51.99c.09.15.19.3.28.46-.1-.15-.19-.3-.28-.46.03-1.37-.05-2.75-.44-4.06.39,1.31.47,2.69.44,4.06ZM116.41,80.41c-.45-.18-.47-.38-.03-.61.01.2.02.41.03.61.37.27.48.66.55,1.06-.07-.4-.19-.78-.56-1.06ZM117.69,85.71c-.35-.83-.7-1.65-1.04-2.48.35.83.7,1.65,1.04,2.47.04.45.4.7.66,1-.27-.3-.62-.55-.66-1ZM129.77,83.85c0-.18-.01-.36-.02-.53,0,.18.01.36.02.53.02.14.03.28.05.42-.25-.11-.27-.25-.05-.41ZM128.74,144.1h0c-.24.65-.25,1.11-.1,1.42-.15-.31-.14-.77.1-1.42ZM126.88,133.94c.29-.7.46-1.46.87-2.09-.41.63-.57,1.4-.87,2.09-.21.26-.45.51-.63.79.19-.28.42-.53.63-.79ZM123.22,160.67c.12,0,.24.01.35.02-.12,0-.24,0-.35-.01-.04-.86-.57-1.03-1.12-1.11.56.08,1.08.25,1.12,1.11ZM119.77,159.66c0,.23-.04.44-.19.59.15-.16.2-.36.19-.59.28,0,.58-.04.82.1-.24-.14-.54-.1-.82-.1ZM119.55,155.47c.97.31.96,1.03.83,1.67.13-.64.14-1.36-.83-1.67-.04-.22-.09-.44-.13-.66.04.22.09.44.13.66ZM113.14,143.77c1.12.51,2.3.6,3.49.64-1.19-.04-2.37-.13-3.49-.64-.18-.15-.22-.44-.31-.67.09.24.12.52.31.67ZM112.31,143.31c-.05.08-.18.13-.43.12-.01.12.14.25.24.35-.1-.11-.25-.24-.24-.35.25,0,.37-.04.43-.12ZM107.97,144.47c1.73.4,3.45.78,5.24.7-1.79.07-3.52-.31-5.24-.7-1.13.08-2.2-.13-3.27-.4,1.07.27,2.15.48,3.27.4ZM44.37,127.55c.03.3.04.61.23.83-.19-.22-.2-.53-.23-.83-.43-.82-.85-1.65-.98-2.56.13.91.55,1.74.98,2.56ZM32.19,131.72c-.22-.05-.44-.07-.66-.07.22,0,.45.02.66.07.49.15.98.34,1.47.47-.49-.13-.98-.32-1.47-.47ZM50.96,134.85c-5.6-.85-11.21-1.68-16.81-2.55,5.6.87,11.2,1.71,16.81,2.55.22.24.49.23.78.15,0,0,0,0,0,0-.28.07-.56.09-.78-.15ZM50.98,125.72c-.1-.12-.25-.26-.34-.38.09.12.25.26.35.38.62.1,1.24.18,1.78.37-.54-.19-1.16-.27-1.78-.37ZM68.54,132.14c-.73-.11-1.22-.37-1.54-.72.32.36.81.61,1.54.72,1.05.15,2.1.31,3.16.46-1.05-.15-2.1-.31-3.16-.46ZM198.15,396.88c0,.18,0,.36,0,.54,0,0,0,0,0,0,0-.18,0-.36,0-.54-.17-.58-.22-1.16-.24-1.74.02.58.07,1.17.24,1.74ZM197.84,391.34c.08.68.06,1.37.05,2.06.02-.69.03-1.37-.05-2.06-.04-.09-.08-.17-.1-.26.02.09.06.17.1.26ZM169.52,399.34c.31-.21.37-.51.4-.83-.03.32-.09.62-.4.83h0ZM35.36,318.34h0c.47,0,.94,0,1.42,0-.12.37-.23.74-.35,1.11-.07.41-.27.56-.51.6.25-.05.44-.19.51-.6.12-.37.23-.74.35-1.1-.47,0-.94,0-1.42,0ZM41.54,303.79c.03-.21.05-.42.08-.64.1-.25.19-.5.29-.74-.1.25-.19.5-.29.74-.03.21-.05.42-.08.64ZM44.51,301.28c.15-.14.34-.19.56-.2.01-.11.02-.21.02-.32,0,.11-.01.22-.02.32-.22,0-.42.06-.56.2ZM77.87,281.07s0,0,0,.01c0,0,0,0,0,0,0,0,0,0,0-.01M84.16,255.18c.11.2.27.37.44.53,0,0,0,0,0,0-.18-.16-.33-.33-.44-.53ZM85.18,226.14c-.09.17-.27.32-.45.47.18-.15.36-.3.45-.47.12-.03.25-.06.37-.09-.12.03-.25.06-.37.09ZM85.95,232.64c-.25.02-.56.45-.86.22,0,0,0-.02,0-.02,0,0,0,.01,0,.02.3.23.61-.2.86-.22ZM89.65,235.04c.44-.04.86-.19,1.13-.72.43-.41.43-.55.27-.61.16.06.17.2-.27.61-.28.53-.69.67-1.14.72ZM89.72,246.61c-.21-.16-.43-.35-.65-.12-.02.1-.05.2-.06.3.02-.1.04-.2.06-.3.23-.22.44-.03.65.12ZM90.66,243.05c.12-.23.3-.35.53-.4-.22.05-.4.17-.53.4-.21.09-.41.19-.62.28.21-.09.41-.19.62-.28ZM90.93,215.97c-.88.74-1.77,1.07-2.66,0,.06-.14.13-.27.19-.41.43-.28.96-.42,1.24-.91.14-.23.28-.47.42-.71.8.1,1.6.2,2.4.3-.02.13-.04.25-.06.38-.51.45-1.02.9-1.54,1.34ZM88.32,235.19c.14.11.19.22.2.33,0-.11-.06-.22-.2-.33-.39-.29-.75-.6-.99-.94.24.34.6.65.99.94ZM87.27,232.14c-.35-.35-.7-.67-1.07-.75.36.09.72.4,1.07.75.11-.01.23-.02.34-.03-.11.01-.23.02-.34.03ZM97.96,247.48c-.02.91-.04,1.81-.05,2.72.02-.91.03-1.81.05-2.72-.35-.27-.33-.66-.32-1.04-.01.39-.03.77.32,1.04ZM106.2,393.39c-.78.7-1.6,1.36-2.02,2.39-.99.99-1.6,2.06-1.88,3.23.28-1.16.89-2.24,1.88-3.23.41-1.03,1.23-1.7,2.02-2.39ZM103.96,390.61c-.14.26-.28.53-.41.79.14-.27.28-.53.41-.79.41.02.8-.1,1.17-.25-.38.15-.76.27-1.17.25ZM106.37,388.05h0c.08.55.57.46.91.61-.34-.14-.84-.06-.91-.61ZM117.41,402.91c-.27-.41-.6-.55-.94-.56.34,0,.66.15.94.55-.02.26.01.44.06.55h0c-.05-.11-.08-.29-.06-.55ZM155.11,395.24c-.04-.41-.18-.86.05-1.18,0,0,0,0,0,0-.23.32-.09.76-.05,1.18ZM67.62,377.47c.03.23.06.46.09.7.3.23.6.46.9.69.05-.22.05-.47.15-.66-.11.19-.1.44-.15.66-.3-.23-.6-.46-.9-.69-.03-.23-.06-.46-.09-.7ZM69.76,376.03c.69-.16,1.32-.51,1.85-1.17h0c-.53.66-1.17,1-1.85,1.17ZM97.77,278.15s0,0,0,0c.04-.34.09-.67.24-.91-.14.24-.2.57-.24.91ZM76.97,393.81c-.12-.61-.15-1.22.02-1.84-.06-.22-.12-.45-.18-.67.48-.57,1.13-.42,1.76-.41,5.38.08,8.78,2.93,10.83,7.69-.51.83-1.39,1.24-2.11,1.84-.62-1.73-1.54-3.33-2.8-4.63-.77-.79-1,.05-1.02.76-.54-.15-1.05.16-1.25-1-.3-1.76-2.28-2.36-3.75-3.19-.43-.24-.98-.27-1.48-.4-.17.63-.14,1.24-.02,1.84ZM88,356.97c-.77.22-1.5.54-2.21.9h0c.71-.36,1.43-.68,2.21-.9.26-.69.7-1.28,1.28-1.75-.59.47-1.03,1.06-1.28,1.75ZM84.61,391.24c-.54.08-1.07.04-1.55-.52-.45-.23-.92-.34-1.4-.39.48.05.95.16,1.4.39.48.57,1.01.61,1.55.53ZM81.64,373.05h0c-.42-.21-.68-.63-1-.99.31.36.58.78,1,.99ZM91.86,388.7c-.38-.51.84-1.24.03-1.7h0c.81.45-.41,1.18-.03,1.7ZM84.94,270.47h0c-.29.07-.57.14-.86.24.28-.1.57-.17.86-.24ZM74.16,375.33c.83-.22,1.68-.27,2.53-.27-.85,0-1.7.05-2.53.27-.32-.67-.74-1.15-1.27-1.43.52.27.94.75,1.27,1.42ZM74.69,375.81c.15.02.3.09.45.25-.68.32-.84.93-1.01,1.53.17-.6.32-1.21,1.01-1.53-.15-.17-.29-.24-.44-.25ZM54.35,298.65c-.43,0-.81-.06-1.04-.31.23.25.61.32,1.04.31.25-.01.58-.01.84-.08-.26.07-.59.07-.84.08ZM53.07,273.03c-.38.67-.59,1.33-.64,2.04.05-.7.26-1.37.64-2.04,0-.43.02-.85.02-1.28,0,.43-.02.85-.02,1.28ZM52.35,257.15c-.28-.14-.32-.4-.34-.67,0,0,0,0,0,0,.58,0,.59.27.34.67ZM39.84,307.85c-.82,1.72-1.48,3.5-2.16,5.28.68-1.77,1.34-3.56,2.16-5.28.18-1.12.6-2.13,1.14-3.1-.53.97-.96,1.99-1.13,3.1ZM164.77,360.83h0c-.62-2.63-1.38-5.21-2.82-7.54,1.44,2.33,2.2,4.91,2.82,7.54ZM156.41,351.09c.87-.26,1.72-.25,2.55-.1-.83-.15-1.67-.16-2.55.1-1.37-.19-2.48.08-3.42.67.93-.59,2.04-.87,3.42-.67ZM149.14,365.74c.36-.02.6-.21.83-.45-.24.23-.47.43-.83.45h0ZM148.19,394.07c-.07.3-.04.58.18.82,0,.16,0,.32,0,.48.03.68.02,1.37.1,2.05-.08-.68-.07-1.36-.1-2.05,0,0,0,0,0,0,0-.16,0-.32,0-.48-.22-.24-.26-.51-.18-.82ZM143.29,366.43c.02-.36.15-.62.55-.67.53-.81.92-1.68,1.19-2.59-.27.91-.67,1.78-1.19,2.59-.08.22-.15.44-.23.67h-.16s-.16,0-.16,0ZM135.15,400.78c-.31.15-.74.15-1.16.15h0c.42,0,.85,0,1.16-.15ZM130.72,387.57c.36.35.81.86,1.24.36-.43.5-.88,0-1.24-.36-.21-.07-.45-.04-.68.04.24-.07.47-.11.68-.04ZM127.05,387.22c.34-.01.68-.03,1.02-.04-.34.01-.68.03-1.02.04-.04.22-.07.49-.35.49.28,0,.32-.27.35-.5ZM134.26,399.87c.1.26-.05.43-.25.57-.48-.17-.96-.34-1.44-.5-.75-1.19-1.93-1.08-3.14-1.21-1.48-.16-1.7,1.79-3.08,1.56-.3,0-.6,0-.9,0-.02.05-.04.1-.06.16.02-.05.04-.11.06-.16-.23-.02-.47-.04-.7-.06.04-.75.09-1.5.13-2.24.03-.37.05-.74.08-1.11,2.74-1.74,8.21.03,9.3,3.01ZM124.15,381.71c.32-.01.65-.08,1.02-.04-.36-.04-.69.03-1.01.04-.32.04-.63.08-.95.12.32-.04.63-.08.95-.12ZM121.11,395.68c.17-.79.84-1.01,1.47-1.2-.63.18-1.3.41-1.47,1.2-.04.04.02.09-.02.12.03-.04-.03-.09.02-.13ZM117.28,397.4c.27,1.22.54,2.45,1.18,3.55.36.61.44,1.2-.4,1.53-.06-.74.28-1.74-1.19-1.33-.56.15-1.69-1.85-1.51-2.49.34-1.21-.44-1.23-1.21-1.03-.58.15-1.01.24-1.21-.44q-.74-2.51-3.15-2.08c0-1.32.03-2.66-1.62-3.12.29-.7.97-.83,1.58-1.06,5.34.98,6.49,1.8,7.54,6.46ZM104.19,367.81c.81.05,1.58,0,2.28-.54.32-.25.9-.26,1.12.05.4.56.86.71,1.34.71.48,0,.98-.16,1.47-.2.27-.06.56-.27.84-.36-.28.08-.57.29-.84.36,0,.34.02.67.03,1.01,0,.23,0,.47.01.7,0-.23,0-.47-.01-.7-.28.06-.5.15-.56.27-.06.12.03.28.37.5-.05.1-.12.19-.2.27-.36.15-.73.29-1.09.44-.2.03-.4.06-.6.08-.13-.04-.26-.07-.39-.1.66-.93.33-1.64-.96-1.74-1.3-.09-2.62.06-3.94.1,0,0-.02-.03-.03-.03.17-.57.53-.84,1.14-.81ZM104.12,371.41c.21-.01.42-.03.63-.04-.21.02-.42.03-.63.05-.92.47-2,.56-2.94.33.94.23,2.02.14,2.94-.34ZM99.57,381.95c-.04-.48-.08-.95-.13-1.43,0,0,0-.1,0-.11,0,0,0,.11,0,.11.04.48.08.95.12,1.43.21.81.39,1.44.6,1.91-.21-.47-.39-1.1-.6-1.91-.24-.12-.67-.37-.68-.35.01-.02.44.23.68.35ZM104.58,393.04c-.58.71-1.15,1.42-1.73,2.13-.1.11-.2.22-.3.33l-.04.02c-.11.01-.26-.02-.33.04-2.5,2.17-4.05.42-5.62-1.33-.1-.11-.31-.1-.48-.14,2.7-1.42,5.55-1.62,8.49-1.05ZM95.18,359.75h0c.27.48.75.37,1.18.47-.43-.1-.91.01-1.18-.47ZM97.39,356.93c-1.05-.51-2.07-.01-3.06-.3-1.26-.36-.79-1.54-1.18-2.3h-.02c.12-.06.25-.1.37-.15-.1-.06-.21-.13-.31-.19h0c.1.06.21.13.31.19.46-.07.91-.13,1.37-.2.24.42.52.73,1.07.49.99-.43,1.59.09,2.07.88.85.99-.24,1.77-.63,1.58ZM96.63,318.09c.44,0,.89-.01,1.33-.02.07-.14.12-.34.2-.45-.08.12-.13.31-.2.45-.45,0-.89.01-1.34.02ZM105.62,311.78c.22,0,.44,0,.66,0,0,.45.14.89.21,1.34.06.45.05.89-.23,1.34h0c-.93.05-1.85.11-2.78.16-.35,0-.69,0-1.04.01-.41-2.54-.74-2.7-3.77-1.85-.12.02-.24.03-.36.05l-.68-.35c-.94-.51-1.38-1.24-1.12-2.34.06-.28.15-.6.11-.87-.04-.27-.21-.5-.67-.61-.48-.05-1.05.03-1.13-.69.19-.08.38-.15.56-.25.01,0-.05-.24-.1-.26-.26-.08-.38.12-.48.32-.11-.14-.21-.29-.32-.44.04-.32.11-.62.44-.78,1.14.22,2.21-.1,3.29-.38.27.14.53.28.79.42-.55.46-1.26.85-.7,1.75.2.66-1.12,1.11-.32,1.81.85.74,1.96.86,2.91.41.76-.36,1.48-.55,2.29-.5h0c.72.45,1.32,1.01,1.75,1.75.22-.01.44-.03.66-.04ZM104.53,288.9c.07.22.24.47.27.67.03.21-.09.38-.58.44-.11.02-.23.02-.33.06-.84.31-1.09,2.04-2.44,1.08-1.14-.81-2.06-1.8-1.71-3.4,1.5.79,3,1.57,4.79,1.15ZM101.1,249.9c0-.11,0-.23,0-.34,0,.11,0,.23,0,.34-.46,0-.92.02-1.38.03.46,0,.92-.02,1.38-.03ZM97.6,223.99c.06.65.44.98,1.05,1.09.32-.07.56-.2.68-.47-.11.26-.36.4-.68.47.02.52.14,1.06-.43,1.4-.29.03-.58.06-.87.09,0-.73-.57-.96-1.1-1.22-.02-.11-.02-.23.01-.34.43-.36.42-1.28,1.33-1.02ZM95.75,220.72c-.35.41.15.93.4,1.42.27.04.54.07.81.1-.27-.04-.54-.07-.81-.1-.25-.49-.75-1.02-.4-1.42ZM93.86,153.81c.2.73.58.94,1,.94-.42,0-.8-.2-1-.93-.92-.12-1.88-.04-2.73.22.85-.26,1.8-.34,2.73-.22ZM90.7,140.91c0-.2,0-.39.01-.59,0,.2-.01.39-.01.59-.1.02-.2.03-.31.02.1.01.21,0,.31-.02ZM90.76,145.85c-.11-.1-.23-.2-.34-.3.38-.1.82-.04,1.07-.44-.25.4-.69.35-1.07.44.11.1.22.2.34.3.79-.04,1.58-.07,2.36-.11-.79.04-1.58.07-2.36.11-2.49.92-5.1,1.33-7.71,1.72,2.61-.39,5.21-.8,7.7-1.72ZM83.79,243.63c0-.1.04-.2.08-.29-.05.09-.07.19-.08.29-.45.13-.9.27-1.35.4.45-.13.9-.27,1.35-.4ZM78.68,256.17h0c-.39-.08-.83-.21-.97-.53.14.32.57.45.97.53ZM76.59,190.19c.13-.22.31-.43.42-.65-.12.22-.29.43-.42.65.01.07,0,.14,0,.21.02-.07.02-.14,0-.21ZM71.97,302.06c.06-.42.29-.67.72-.71,0,0,0,0,0,0,.04.03.08.04.12.06,0,0,0,0,0,0-.04-.02-.07-.03-.12-.06-.43.04-.66.29-.72.71-.43.14-.87.28-1.3.42.43-.14.86-.28,1.3-.42ZM68.28,212.64c.62-.49.87-1.19,1.08-1.88-.21.7-.46,1.39-1.08,1.88.03.57-.04,1.11-.23,1.64.18-.53.26-1.07.23-1.64ZM66.02,313.89c.06-.04.12-.07.18-.1,0,0,0,0,0,0-.06.03-.12.06-.17.1-.28.13-.6.36-.84.38.24-.02.55-.25.84-.38ZM63.72,225.44h0c-.22.73-.48,1.44-.89,2.07.41-.63.67-1.34.89-2.07ZM63.01,285.65h0c-.04-.26-.2-.43-.44-.42.24,0,.41.16.45.42ZM38.36,278.33c2.32-11.91,5.54-23.62,8.18-35.45,3.23-14.45,6.73-28.83,9.83-43.31.06-.28.05-.57.08-.85.75-.17.4.44.39.66-.12,8.93-.1,17.86-.49,26.78-.19,4.35-1.15,8.67-1.77,13-3.15,8.77-6.3,17.54-9.45,26.31.33.31.3.52-.16.61-.15.32-.3.64-.45.96l.02.02s0,0,0,0c-2.75,7.11-5.35,14.27-7.53,21.58-.24.56-.41,1.16-.74,1.66-.38.58-.02,1.68-1.17,1.75,1.49-4.48,2.34-9.1,3.24-13.72ZM46.25,267.92c-.57,1.45-1.18,2.89-2.1,4.17-.04.21-.07.41-.11.62.04-.21.08-.41.11-.62.92-1.29,1.53-2.72,2.1-4.17ZM33.86,320.37c-.33.99-.71,1.98-.97,2.99-.15.56-.81,1.21.08,1.75l-.02.02c-1.15-.07-2.18-.97-3.41-.52-.24.12-.48.25-.71.37-.22-.13-.44-.26-.66-.39.37-.9.71-1.82,1.1-2.71,3.93-8.86,6.78-18.12,9.89-27.28,0,0,0,0,0,0-.16-.19-.1-.33.1-.44,2.89-8.17,5.84-16.31,8.63-24.52.79-2.33,2.05-4.48,2.5-6.93.5-.37.18-.95.32-1.41l-.04.06c-.03-.31,0-.59.36-.7.21-.13.43-.25.64-.37-.61,4.12-1.18,8.24-1.84,12.35-.62,3.85-1.29,7.7-2.24,11.49-.46,1.5-.93,3-1.39,4.49-4.05,10.44-8.1,20.88-12.16,31.32,0,0,0-.01.01-.01-.06.15-.12.29-.17.44.24-.01.47-.02.71-.04.14-.05.28-.1.43-.15-.14.05-.29.1-.43.15-.24.01-.47.02-.71.03ZM29.13,369.25c.41,1.03.39,2.29,1.13,3.13-.74-.84-.72-2.1-1.13-3.13-.3-.3-.48-.62-.57-.95.09.34.27.66.57.95ZM28.12,371.9c.39.21.67.57.94.94-.27-.37-.55-.73-.94-.94h0ZM29.56,378.04c-.83-.22-1.42.12-1.71.95,0,0,0,0,0,0,.28-.83.88-1.17,1.71-.95ZM24.79,387.44c.33.44.57.91.62,1.47-.05-.55-.28-1.03-.62-1.47-.19-.57-.48-1.01-.84-1.36.36.35.64.79.84,1.36Z" style="fill: #fff; stroke-width: 0px;"/>
</svg>