<?xml version="1.0" encoding="UTF-8"?>
<svg id="Logo" data-name="Capa 1" xmlns="http://www.w3.org/2000/svg" viewBox="0 0 281.65 490.72">
  <defs>
    <style>
      .logo {
        fill: #FFFFFF;
        stroke-width: 0px;
      }
    </style>
  </defs>
  <path class="logo" d="M280.46,468.31c-1.36-.63-2.95-.72-4.19-1.7.59-.96,1.66-.75,2.45-1.15.4-.2.91-.44.88-.98-.04-.61-.6-.61-1.06-.68-.33-.05-.67-.04-1-.1-.45-.08-.98-.06-1.07-.69-.11-.69.33-.94.9-1.09.39-.11.77-.23,1.14-.39.52-.24,1.28-.33,1.18-1.14-.09-.72-.76-.89-1.35-.99-1.71-.31-3.41-.56-5.16-.57-4.46,0-8.93.03-13.38-.61,3.83-1.08,7.82-.81,11.72-1.37-5.95-1.64-12.04-2.09-18.1-2.72-4.22-.43-8.45-.76-12.67-1.1-.16.03-.31.06-.47.08-3.72.42-7.27-.71-10.9-1.2-.1.04-.19.09-.3.12-2.91.9-6.09.48-8.18-1.1.05.34.1.68.16,1.02-3.42-.61-6.85-1.1-10.34-1.05-.41-4.52-1.62-8.91-2.33-13.37-1.3-8.22-3.34-16.32-3.95-24.66-.17-2.39-1.31-5.01-.65-7.08.22-.69.37-1.38.49-2.07-1.07-3.33-1.27-6.83-1.88-10.24-.04,0-.07,0-.11,0-1.02-.02-1.24-.35-1.22-1.24.01-.6-.05-1.22-.2-1.79-.21-.76-.07-1.2.4-1.5-.89-2.94-1.84-5.92-1.17-8.72-.14-.52-.29-1.05-.45-1.57-1.78-5.72-4.55-12.13-3.71-18.26-.31-1.41-.55-2.84-.71-4.29-1.13-2.29-2.18-4.61-3.07-6.99-4.87-13.12-6.79-26.93-8.9-40.69-.63-4.08-1.34-8.16-1.97-12.24-.87-5.6-1.83-11.2-2.48-16.83-.36-3.13-.63-6.26-1.24-9.37-1.11-5.56-2.23-11.16-2.42-16.83-.35-10.42-.96-20.81-2.35-31.15-.28-2.12.92-2.93,2.54-3.61.76-.32,1.13-.4,1.31.65.32,1.9.81,3.78,1.31,5.65.38,1.39.74,2.69-.73,3.74-.49.35-.51.97,0,1.38.47.38.84.07,1.16-.35.18-.23.36-.59.87-.47.05.12.14.28.18.45,1.9,7.77,3.83,15.53,6.84,22.98,1.67,4.13,2.97,8.41,4.36,12.66.18.54.92,1.42-.2,1.87.16.72.34,1.43.53,2.14.51-.04.71.26.84.79,2.22,8.93,5.42,17.57,7.83,26.45,2.32,8.55,4.49,17.18,7.77,25.44.59,1.5.74,2.8-.29,4.01.26.7.52,1.4.76,2.12.23-.22.31-.72.57-.91.14-.1.18-.39.58-.12,1.57,6.81,3.01,13.76,5.23,20.52.31.93-.07,1.46-.73,2.01,0,0,0,0,0,.01.36.66.8,1.28,1.28,1.88.22-.06.42-.02.57.23,1.47,2.52,2.47.19,3.65-.09,1.51-.36-.73-2.51,1.13-2.54,1.25-.02,2.2-.27,2.87-1.34.27-.44.46-1.19.82-1.28,2.52-.68,4.17-2.71,6.34-3.91.32-.18.72-.8,1.16-.16.05.07.08.17.11.26.46-.62,1.08-1.12,1.85-1.42-1.78-4.16-2.75-8.76-3.95-13.06-.35-.29-.41-.81-.59-1.27-1.09-2.77-2.16-5.56-3.23-8.33-.18-.47-.63-.98.34-1.17.16-.03.33-.07.48-.13-.2-.75-.42-1.49-.63-2.23-.38.13-.59.61-.89.89-.22.2-.4.31-.58.22-.2-.77-.33-1.5-.58-2.17-2.53-6.66-5.09-13.32-7.64-19.98-.16-.41-.67-.81-.2-1.25,1.16-1.11.31-1.81-.37-2.69-.51-.66-1.59-1.41-.48-2.37-.42-1.04-.81-2.08-1.18-3.14-.57-.44-1.09-.97-1.34-1.73-.81-2.47-1.64-4.94-2.52-7.38-.34-.95-.35-1.66.71-2.11.02,0,.02-.02.04-.02-.17-.66-.34-1.33-.51-1.99-.12,0-.25.05-.39.15-1.19.81-1.25-.12-1.51-.86-.91-2.58-1.95-5.11-2.74-7.73-.54-1.79-1.77-3.43-1.47-5.43-.23-.47-.45-.95-.65-1.43-.47-.46-.75-1.25-.8-2.08-.42-1.27-.71-2.57-.82-3.93-.29-.09-.38-.49-.49-.86-1.84-5.84-3.78-11.66-6.25-17.26-1.58-3.58-2.36-7.45-4.13-10.96-.61-1.22-1.98-2.6-.45-4.16.2-.21-.02-.39-.19-.45-2.52-.86-2.61-2.89-2.44-5.04.05-.61-.21-.98-.8-.68-.71.36-.77-.17-.97-.55-.95-1.7-.26-3.29,1.75-3.24,2.32.06,3.11-.54,2.4-2.81-.07-.23.17-.66.39-.85,1.21-1.07,1.05-2.35.65-3.69-.88-2.88-2-5.66-3.34-8.35-2.04-4.08-2.8-8.62-5.2-13.17,4.83,2.35,9.6,2.35,14.07,3.6.1.48.52.54.88.67-.37,2.87-.13,3.07,2.63,2.2.17,1.18.51,2.34.26,3.58-1.03-.12-2.25-.75-2.54.92-.02.12-.01.21-.02.31.9-.08,1.85.12,2.76.71,1.08.7,2.18,1.38,3.26,2.07.11-.58.56-.6,1.35-.21,2.03,1.01,4.14,1.71,6.31,2.22.66-.07,1.4.02,2.19.33.15.06.29.13.44.18.91.15,1.83.26,2.76.36.66.07,1.19.24,1.54.6.87.11,1.76.3,2.67.59.01-.09.02-.17.03-.26,4.52,1.28,8.93,2.59,13.37,3.78,7.58,2.03,15.33,3.2,23.06,4.5,5.16.87,10.24,2.19,15.37,3.22,1.48.3,2.99.39,3.41,1.75.52-.06,1.04-.08,1.56-.08.02-1.41.04-2.81.03-4.21-.26-.44-.39-1.02-.43-1.73-.05-.86-.19-1.72-.34-2.57-.14-.82-.18-1.31.61-1.22-.12-2.37-.32-4.76-.63-7.2-.32-.15-.56-.42-.61-.94-.18-2.1-.42-4.18-.69-6.27-.21-1.64-.47-3.45,1.05-4.87.17-.16.25-.58.12-.92-1.4-.35-2.81-.66-4.23-.95-.07-.01-.13-.03-.2-.04-.09.72-.69.67-.8.21-.04-.16-.09-.29-.13-.41-.37-.08-.74-.15-1.11-.23-.11.1-.23.21-.35.32-.29.29-.59.23-.91.17-2.76-.51-5.53-.93-8.2-1.84-.5-.17-.78-.46-.96-.82-.58-.12-1.17-.25-1.75-.37-.01.57-.18.8-1.01.56-6.35-1.86-13-2.4-19.35-4.28-3.57-1.06-7.26-1.67-10.83-2.78-.65-.2-.85-.66-1.06-1.08-.56-.12-1.11-.23-1.67-.34-.28.4-.54.85-1.1.64-1.14-.41-2.48-.39-3.29-1.49-.44-.08-.87-.16-1.31-.24-1.08,1.02-2.21.02-3.26-.18-1.39-.27-2.76-.64-4.13-1.02-.54-.08-1.08-.16-1.63-.24-4.08-.57-8.19-1.16-12.22-2.04.29,1.46.09,3.02.47,4.51.04.14-.16.5-.23.5-1.29-.09-2.8-.76-3.14,1.35,0,0-.14.02-.19,0-1.67-1.14-4.01-.96-5.43-2.36-1.61-1.6-3.12-2.15-5.33-1.42-1.81.6-3.51-.53-5.21-1.06-1.16-.36-.85-1.67-1.19-2.56-1.08-2.83-3.1-4.9-5.71-6.15-1.61-.77-2.59-1.84-3.18-3.33-.56-1.4-1.3-2.68-2.35-3.66-1.51-1.43-1.38-2.87-.61-4.51.37-.79.78-1.8-.1-2.34-1.1-.68-1.11-1.64-1.34-2.69-.51-2.27-1.15-4.52-1.85-6.74-1.02-3.19-2.25-6.29-2.88-9.62-1.07-5.66-2.36-11.27-4.08-16.78-.87-2.79-1.83-5.58-2.31-8.43.24-.12.51-.1.78-.07-.22-.6-.33-1.18-.34-1.74-.07.02-.15.04-.22.06-.84.25-1.1-.37-1.27-.92-.42-1.37-.8-2.75-1.16-4.14-2.65-10.02-5.37-20.03-8.19-30.01-1.63-5.77-3.38-11.51-5.23-17.21-2.33-7.18-3.41-14.68-5.64-21.88-.27-.87-1.27-2.07.84-2.08,0,0,.02,0,.02,0-.44-.78-.86-1.57-1.3-2.35-.02,0-.04,0-.07-.01-1.34-.18-1.09-1.2-1.1-2.01-1.71-2.77-3.74-5.21-7-6.47-1.41-.54-2.69-1.06-3.87-1.68-3.25-1.14-6.49-2.35-9.89-3.02-.51-.1-1.07-.22-1.38-.72-.81-1.28-1.92-1-3.11-.7-1.39.35-2.8.61-3.27-1.37-.11-.46-.41-.92-.99-.76-.5.14-1.42.37-1.29.74.43,1.24.05,1.45-.57,1.48.34.94.69,1.87,1.05,2.8,1.08.19,1.4.99,1.8,1.87.47,1.03.65,2.15,1.11,3.2,1.32,3.05,2.45,6.18,3.7,9.38-.23.03-.41.06-.58.09.27.63.54,1.27.8,1.9.42-.05.77.05.95.52,1.5,3.85,3.09,7.67,4.2,11.66.12.43.23.9-.13,1,.26.78.54,1.55.82,2.32.6.3.87.99,1.06,1.78.44,1.8,1.06,3.53,1.7,5.26,2.84,6.76,5.98,13.39,8.16,20.39.66,2.14,1.18,4.33,1.48,6.5.66,1.69,1.25,3.39,1.66,5.16.44,1.88,2.1,3.73.65,5.9-.21.32.17.94.72,1.02.7.1.8.66.95,1.14,2.03,6.43,5.14,12.44,7.28,18.81,3.2,9.55,6.81,18.94,11,28.07.8,1.73.05,4.23,2.37,5.35.66.32-.25.71-.46,1.03-.46.69-.74,1.21.23,1.77,1.48.86,2.71,1.98,3.13,3.82-3.32,1.43-7.05,1.87-10.07,4.06-.47.34-1.01.75-1.55.81-4.31.46-8.36,1.86-12.37,3.37-1.46.55-2.76.6-4.2.11-2.27-.77-4.56-1.49-6.87-2.14-6.22-1.75-12.52-3.25-18.68-5.22-.91-.29-1.57-.56-1.64-1.06-.63-.18-1.23-.4-1.82-.66-.33.63-.88.59-1.61.28-2.55-1.08-5.27-1.63-7.85-2.67-3.78-1.53-7.83-2.2-11.82-2.98-6.47-1.27-12.5-3.95-18.82-5.7-4.36-1.21-8.65-2.63-12.86-4.27-4.34-.94-8.65-2.08-12.98-3.04-2.08-.46-4.17-.97-6.24-1.58.67,2.97,1.22,5.98,1.7,9,.43.65.55,1.48.42,2.54,0,.06-.01.1-.02.16.97,6.92,1.53,13.89,1.89,20.7.83-.08,1.66-.15,2.49-.21-.01-.14-.02-.28-.02-.41,0-.53-.31-1.41.73-1.19,1.14.24,2.78-.12,2.98,1.52.73.01,1.46.05,2.2.12.25-.5.78-.62,1.56-.47,2.03.39,4.07.87,6.13.95.98.04,1.64.3,2.1.73,1.1.16,2.21.33,3.31.5.25-.07.58-.04,1.07.09.5.13,1.01.23,1.52.33.42.07.84.13,1.26.2.65.09,1.3.17,1.95.26,1.55.2,2.56.34,3.25.61,1.34.22,2.67.45,4,.67.12-.24.44-.31,1.16-.1,2.3.66,4.65,1.18,7.01,1.62,1.22.23,2.39.3,2.55,1.89.05.47.34.7.83.65.47-.06,1.13-.13,1.03-.7-.3-1.73.92-.94,1.45-.85,3.75.63,7.57.78,11.02,1.7-2.67.84-5.5,1.9-8.62,1.89-1.16,0-1.71,1.31-1.37,2.41.25.81.03,1.29-.42,1.79-2.44,2.66-5.38,4.75-7.38,7.95-1.89,3.02-5.59,4.49-7.87,7.35-.59.74-1.77,1.09-2.11,2.06-.9,2.55-2.69,4.58-3.87,6.94-1,2-3.03,3.5-2.98,6.02-.24.63-.95,1.04-.88,1.82-1.63,1.17-.69,2.52.07,3.44.64.78.8,1.34.53,2.2-.55,1.74-.41,2.98,1.92,2.99.73,0,1.46.57,2.18.9.69.32,1.09.52.59,1.57-.85,1.77-.05,2.73,1.91,2.76.93.02,1.83.3,2.79-.17.47-.23,1.68-.17,1.48.67-.46,2-.3,4.09-.65,5.96-1.17,6.29-2.32,12.61-3.96,18.8-4.61,17.49-8.18,35.21-12.3,52.81-3.26,13.9-6.47,27.82-9.82,41.7-3.02,12.51-6.18,24.99-8.87,37.58-.68,3.19-1.63,6.33-2.57,9.45-.17.56-.33,2.01-1.7.81-1.38-1.21-3.72.04-4.27,1.82-.61,1.98-.1,3.9-.25,5.84-.07.89.07,1.24,1.13,1.28,3.49.12,3.49.19,2.66,3.64-.09.39-.17.79-.31,1.16-.6,1.59.28,2.23,1.63,2.52,2.16.47,3.19.02,3.35-1.57.16-1.57.89-2.93,1.29-4.4.2-.75.63-.87,1.33-.83,2.53.18,5.06.28,7.59.45,2.55.17,2.75.32,2.07,2.83-1.47,5.4-2.82,10.81-3.74,16.35-1.34,8.01-2.95,15.99-4.02,24.04-.22,1.68-.69,2.19-2.4,2.21-3.7.04-4.61.21-5.86,5.01-.08.32-.23.66-.19.98.18,1.46-.48,1.72-1.81,1.6-2.8-.26-5.24.7-6.62,3.2-1.28,2.32-2.19,4.85-2.47,7.53-.08.77-.33.92-1.08,1.01-2.69.32-5.34.85-7.88,1.88-3.44,1.39-3.77,2.75-1.05,5.28.8.75,1.53,1.17.31,2.22-.69.59.05,1.18.55,1.62,1.51,1.31,3.33,1.93,5.23,2.38,1.16-.24,2.32-.59,3.46-.5-1.14-.09-2.3.26-3.46.5.22.69.87.76,1.42.93,1.27.38,2.56.7,3.84,1.09.35.1.91.02.95.54.04.6-.52.73-.96.82-.84.18-1.72.21-2.55.43-1.05.27-2.74.12-2.85,1.33-.13,1.36,1.54,1.73,2.64,2.01,1.93.49,3.92.76,5.89,1.04,2.57.36,5.17.52,7.69,1.19.68.18,1.37.56,1.31,1.24-.05.64-.86.43-1.36.47-1.86.13-3.73.2-5.59.34-1.35.1-2.74.15-3.87,1.29,11.51,3.29,23.15.98,34.75.67-3.31,1.46-6.97,1.2-10.33,2.36,2.81.98,5.61,1.54,8.48,1.56,12.01.06,24.01.08,36.03-.6,9.72-.56,19.46-1.21,29.21-1,.53.01,1.06.08,1.97.16-3.28,1.5-6.59,1.49-9.52,3.01,6.85,2.77,78.69,1.35,85.37-1.64-1.01-.36-2.24-.02-3.1-.97.87-.5,1.74-.51,2.6-.51,15.95.1,31.87-.42,47.73-2.37,8.03-.99,15.91-2.55,23.6-5.03,1.36-.44,2.83-1.01,3.79-2.4-1.26-.22-2.52.21-3.66-1.02,4.01.06,7.53-1,11.1-1.83.9-.21,1.85-.13,2.26-1.26.2-.56.81-.69,1.37-.46.64.26.49.73.34,1.2.69-.22,1.39-.42,2.07-.59.83-.51,1.62-1.08,2.37-1.71,1.2-1.02.93-1.7-.42-2.33ZM224.41,342.63s0,0,0,0c0,0,0,0,0,0h0c-.62-.34-.87-.15-1.03.17.16-.32.41-.51,1.03-.17ZM221.89,325.04c-.21-.51-.52-.98-1.04-1.32,0,0,0,0,0,0,.52.34.83.8,1.04,1.32ZM232.44,194.94c.03.1.08.19.12.27-.05-.08-.09-.17-.12-.27-.32.13-.69.25-1.01.24.32,0,.69-.11,1.01-.24ZM220.32,170.26h0s0,0,0,0c-.08.42-.17.84-.26,1.3.09-.46.17-.88.26-1.3-.28-.21-.54-.39-.78-.53.24.14.49.32.78.53ZM112.03,20.22c.14-.13.14-.45-.12-1.15-.39-1.19-.8-2.38-1.18-3.58.38,1.2.78,2.39,1.18,3.58.26.7.25,1.02.12,1.15ZM115.92,8.57c-.45,0-1.23-.31-1.15.34-.08-.65.7-.34,1.15-.34,1.2-.13,1.62.44,1.83,1.14-.21-.7-.63-1.27-1.83-1.14ZM137.28,69.84c-.36-.75-.77-1.48-1.06-2.26.29.78.7,1.51,1.06,2.26,0,0,0,0,0,0h0ZM139.87,94.26c-.19.02-.34.07-.42.16.09-.09.23-.14.42-.16.24-.05.44-.02.6.07-.16-.09-.36-.12-.6-.07ZM145.74,105.12h-.01s.01,0,.01,0c0,0,0,0,0,0-.17,1.07-.01,2.1.16,3.16-.17-1.05-.33-2.09-.16-3.16ZM147.38,120.2c.3.08.53.26.72.52-.19-.26-.42-.44-.72-.52ZM48.1,349.04c-3.95,8.77-6.88,18-10.24,27.03-.19.52-.21,1.13-.98.8-1.07-.46-2.07-.52-3.19,0-.84.39-.85-.28-.62-.87.58-1.49,1.13-3,1.77-4.46,3.66-8.24,6.31-16.83,9.18-25.35,3.49-10.35,7.03-20.68,10.75-30.96,1.42-3.92,3.29-7.7,4.17-11.82.08-.38.15-1.1.92-1.24-1.92,16.18-5.04,31.92-11.77,46.86ZM65.37,261.94c-.39,8.94-2.59,17.58-5.72,26.06-6.09,16.5-12.33,32.95-17.84,49.66-.14.42-.33.81-.7,1.7,7.5-36.77,16.75-72.56,24.36-107.84,0,9.58.35,20.01-.11,30.41ZM77.4,364.03h0c.85-.6,1.14-.75,1.68-.6-.54-.15-.83,0-1.67.6ZM110.93,264.43c-.34-.14-.54-.33-.64-.54.11.21.31.4.64.54ZM111.56,446.91c-.55-.03-1.1,0-1.61-.19.51.19,1.06.16,1.61.19.27,0,.53,0,.8,0-.27,0-.53,0-.8,0ZM118.08,240.48c.16-.04.33-.27.37-.49-.09-.43-.39-.86-.77-.8.38-.06.68.37.77.8-.04.23-.21.45-.37.49ZM148.79,347.93c.05-.02.12-.07.17-.1-.06.03-.12.07-.17.1.09.14.17.29.26.43-.08-.14-.17-.29-.26-.43ZM157.73,443.28c-.18-.4-.16-.91.03-1.55,0,0,0,0,0,0-.2.64-.21,1.15-.03,1.55ZM163.36,297.96c.66.02,1.48-.24,2.45-.76-.36,0-.7-.02-1.04-.07.34.05.68.08,1.04.07,0,0,0,0,0,0h0c-.97.52-1.8.77-2.45.76ZM165.89,297.18s0,0,0,0c0,0,0,0,0,0,.15-.17.3-.34.48-.44-.18.09-.33.27-.48.44.39-.13.77-.25,1.16-.38-.39.13-.77.25-1.16.38Z"/>
</svg>